<svg width="720" height="405" fill="none" xmlns="http://www.w3.org/2000/svg"><path fill="#EEF2FF" d="M0 0h720v405H0z"/><path d="m546.383 68.947-10.508 119.872 119.022-44.85-85.552.031-22.962-75.053ZM536.158 188.39 569.345 144M546.383 68.947l76.934 3.679 31.58 71.343" stroke="#111827" stroke-width="1.984" stroke-miterlimit="10" stroke-linecap="round" stroke-linejoin="round"/><path fill-rule="evenodd" clip-rule="evenodd" d="m181.208 95.4-52-11.6-12.6 56.3 52.1 11.6 12.5-56.3Zm-54.5-15.4-13.9 62.5 58.3 13 14-62.5-58.4-13Z" fill="#0C0C0C"/><path fill-rule="evenodd" clip-rule="evenodd" d="m173.608 100.3-39.6-8.8-6.5 29.2 39.6 8.8 6.5-29.2Zm-42-12.7-7.9 35.4 45.8 10.2 7.9-35.4-45.8-10.2Z" fill="#0C0C0C"/><path d="m124.608 114-1.6-.3-.3 1.6-9.3 41.7-.3 1.6 1.6.3 4.2.9c12.4 2.8 24.6-5 27.4-17.4 2.8-12.4-5-24.6-17.4-27.4l-4.3-1Z" fill="#fff" stroke="#0C0C0C" stroke-width="3.201"/><path d="M112.208 159.9c-13.2-3-21.6-16.1-18.6-29.3 2.9-13.3 16.1-21.6 29.3-18.7 13.2 2.9 21.6 16.1 18.6 29.3-2.9 13.3-16.1 21.6-29.3 18.7Z" fill="#22C8D3"/><path fill-rule="evenodd" clip-rule="evenodd" d="M96.708 131.3c-2.5 11.5 4.7 22.9 16.2 25.4 11.5 2.6 22.9-4.7 25.5-16.2 2.6-11.5-4.7-22.9-16.2-25.5-11.5-2.5-22.9 4.8-25.5 16.3Zm-3.1-.7c-3 13.2 5.4 26.3 18.6 29.3 13.2 2.9 26.3-5.4 29.3-18.6 2.9-13.2-5.4-26.3-18.6-29.3-13.2-3-26.4 5.3-29.3 18.6Z" fill="#0C0C0C"/><path d="m139.708 141.9 6.8 1.5M136.808 147.8l6.8 1.5M133.508 152.6l6.8 1.5M140.608 135.6l5.2 1.2M139.908 128.9l5.2 1.2" stroke="#0C0C0C" stroke-width="3.201"/><path fill-rule="evenodd" clip-rule="evenodd" d="M116.608 140.1c2.3.5 4.6-.9 5.1-3.2l3.1.7c-.3 1.3-1 2.6-1.9 3.6-1 1-2.2 1.7-3.5 2-1.3.3-2.7.3-4.1-.1-1.3-.4-2.5-1.2-3.4-2.2l2.4-2.1c.6.6 1.4 1.1 2.3 1.3Z" fill="#0C0C0C"/><path d="M110.308 134.3c.3-1.3 1-2.6 1.9-3.6 1-1 2.2-1.7 3.5-2 1.3-.3 2.7-.3 4.1.1 1.3.4 2.5 1.2 3.4 2.2l-2.4 2.1c-.5-.6-1.2-1-1.9-1.3-.8-.2-1.6-.3-2.3-.1-.8.2-1.5.6-2 1.2s-.9 1.3-1.1 2l-3.2-.6Z" fill="#0C0C0C"/><path fill-rule="evenodd" clip-rule="evenodd" d="M108.308 144.8c2 2.1 4.7 3.4 7.6 3.8l.4-3.2c-.3 0-.6-.1-.8-.1-5.2-1.2-8.4-6.3-7.3-11.5 1.1-5.2 6.3-8.4 11.5-7.3 5.2 1.2 8.4 6.3 7.3 11.5-.4 1.9-1.4 3.5-2.7 4.8l2.2 2.3c2.1-2 3.4-4.7 3.8-7.6.4-2.9-.3-5.8-1.8-8.3-1.5-2.5-3.8-4.4-6.5-5.4s-5.7-1-8.5-.1-5.1 2.7-6.7 5.2c-1.6 2.4-2.3 5.3-2 8.2.3 2.9 1.5 5.6 3.5 7.7Z" fill="#0C0C0C"/><g clip-path="url(#a)"><path fill-rule="evenodd" clip-rule="evenodd" d="M342.82 335a14.641 14.641 0 0 0 14.68-14c2.51-.668 5.142-.73 7.68-.18a14.633 14.633 0 0 0 10.963 13.823 14.63 14.63 0 1 0-3.203-27.083c-2.83-.36-5.35-.6-7.76-.72a7.318 7.318 0 0 0-7.62 0c-2.36.13-4.82.36-7.58.69a14.633 14.633 0 0 0-18.116 3.317 14.623 14.623 0 0 0-3.236 12.415A14.628 14.628 0 0 0 342.82 335Z" fill="#fff"/><path d="m357.5 321-.56-2.18-1.62.42-.07 1.66 2.25.1Zm7.68-.18 2.25-.05V319l-1.73-.38-.52 2.2Zm7.76-13.26-.28 2.23.71.09.63-.34-1.06-1.98Zm-7.76-.72-1.18 1.94.49.3h.57l.12-2.24Zm-7.62 0 .12 2.25h.57l.49-.3-1.18-1.95Zm-7.56.71-1.1 2 .64.35.73-.08-.27-2.27Zm5.27 13.37a12.38 12.38 0 0 1-12.44 11.81v4.5a16.883 16.883 0 0 0 16.94-16.1l-4.5-.21Zm10.41-2.28a18.513 18.513 0 0 0-8.72.2l1.12 4.37c2.161-.6 4.435-.672 6.63-.21l.97-4.36Zm14.1 14.24a12.382 12.382 0 0 1-12.35-12.09l-4.5.11a16.882 16.882 0 0 0 16.81 16.48l.04-4.5Zm12.41-12.33a12.394 12.394 0 0 1-.961 4.734 12.386 12.386 0 0 1-11.469 7.596v4.5a16.884 16.884 0 0 0 16.93-16.81l-4.5-.02Zm-12.33-12.43c1.626.007 3.234.333 4.734.961a12.386 12.386 0 0 1 7.596 11.469h4.5a16.884 16.884 0 0 0-16.81-16.93l-.02 4.5Zm-5.86 1.44a12.401 12.401 0 0 1 5.86-1.44v-4.5a16.853 16.853 0 0 0-8 2l2.14 3.94Zm-8.93-.45c2.34.12 4.8.35 7.59.7l.56-4.47c-2.87-.36-5.45-.6-7.93-.73l-.22 4.5Zm1.28-4.17a9.539 9.539 0 0 0-4.94-1.4v4.51a4.994 4.994 0 0 1 2.61.73l2.33-3.84Zm-4.94-1.4a9.646 9.646 0 0 0-5 1.4l2.35 3.84a4.998 4.998 0 0 1 2.66-.73l-.01-4.51Zm-11.16 6.25c2.72-.34 5.14-.56 7.43-.68l-.23-4.49c-2.43.12-4.95.36-7.74.7l.54 4.47Zm-7.32-1.79c2.083.004 4.13.537 5.95 1.55l2.19-3.94a16.898 16.898 0 0 0-8.07-2.14l-.07 4.53Zm-12.43 12.3a12.381 12.381 0 0 1 12.43-12.3v-4.5A16.88 16.88 0 0 0 326 320.28l4.5.02Zm12.33 12.43a12.376 12.376 0 0 1-8.739-3.661 12.386 12.386 0 0 1-3.591-8.769H326a16.884 16.884 0 0 0 16.81 16.93l.02-4.5Z" fill="#0C0C0C"/><path d="M343.06 330.48c5.595 0 10.13-4.535 10.13-10.13 0-5.595-4.535-10.13-10.13-10.13-5.595 0-10.13 4.535-10.13 10.13 0 5.595 4.535 10.13 10.13 10.13Z" fill="#DE3860" stroke="#0C0C0C" stroke-width="2.25"/><path d="M338.41 326.72a7.89 7.89 0 0 1-2.75-9.09 8.002 8.002 0 0 1 1.82-2.84l1.52 1.55a5.719 5.719 0 0 0-1.3 2 5.639 5.639 0 0 0-.34 2.4c.068.818.31 1.613.71 2.33a5.623 5.623 0 0 0 1.61 1.82l-1.27 1.83Z" stroke="#fff" stroke-width="4.5"/><path d="M379.63 330.63c5.595 0 10.13-4.535 10.13-10.13 0-5.595-4.535-10.13-10.13-10.13-5.595 0-10.13 4.535-10.13 10.13 0 5.595 4.535 10.13 10.13 10.13Z" fill="#DE3860" stroke="#0C0C0C" stroke-width="2.25"/><path d="M361.38 314.24a1.97 1.97 0 1 0 0-3.94 1.97 1.97 0 0 0 0 3.94Z" fill="#fff" stroke="#0C0C0C" stroke-width="2.25"/><path d="M374.74 326.86a7.877 7.877 0 0 1-3.22-5.75 8.012 8.012 0 0 1 .474-3.336 8.014 8.014 0 0 1 1.806-2.844l1.56 1.56a5.676 5.676 0 0 0-1.31 2 5.511 5.511 0 0 0-.33 2.41 5.665 5.665 0 0 0 2.28 4.19l-1.26 1.77Z" stroke="#fff" stroke-width="4.5"/><path d="M379.55 286.82v2.82h2.82v-2.82h-2.82ZM392.468 286.9l-.011 2.82 2.82.012.011-2.82-2.82-.012ZM379.827 277.001l-.011 2.819 2.82.012.011-2.82-2.82-.011ZM368.502 289.621l-.011 2.82 2.82.011.011-2.82-2.82-.011ZM371.293 298.798l-.011 2.82 2.82.011.011-2.82-2.82-.011Z" fill="#0C0C0C"/></g><defs><clipPath id="a"><path fill="#fff" transform="translate(326 277)" d="M0 0h70.69v60.38H0z"/></clipPath></defs></svg>